<?xml version="1.0" standalone="no"?>
<!DOCTYPE svg PUBLIC "-//W3C//DTD SVG 20010904//EN"
 "http://www.w3.org/TR/2001/REC-SVG-20010904/DTD/svg10.dtd">
<svg version="1.0" xmlns="http://www.w3.org/2000/svg"
 width="750.000000pt" height="500.000000pt" viewBox="0 0 750.000000 500.000000"
 preserveAspectRatio="xMidYMid meet">
<metadata>
Created by potrace 1.16, written by Peter Selinger 2001-2019
</metadata>
<g transform="translate(0.000000,500.000000) scale(0.100000,-0.100000)"
fill="#000000" stroke="none">
<path d="M7350 1900 c-8 -5 -11 -10 -6 -10 5 0 4 -6 -2 -13 -8 -10 -5 -20 14
-40 l24 -27 -22 -5 c-13 -2 -48 -7 -78 -10 -131 -12 -260 -34 -287 -48 -34
-19 -189 -51 -378 -77 -77 -11 -174 -26 -215 -35 -41 -8 -147 -24 -235 -35
-181 -22 -284 -37 -335 -50 -19 -4 -75 -14 -125 -20 -182 -25 -513 -80 -625
-105 -36 -8 -92 -17 -125 -21 -33 -3 -87 -12 -120 -20 -33 -8 -132 -29 -220
-48 -88 -20 -187 -42 -220 -51 -33 -9 -87 -22 -120 -29 -33 -7 -69 -17 -80
-23 -12 -6 -54 -19 -95 -28 -100 -22 -186 -44 -235 -60 -22 -7 -81 -23 -131
-34 -50 -12 -111 -28 -135 -36 -56 -20 -111 -27 -239 -30 -58 -1 -141 -7 -185
-13 -101 -14 -351 -39 -475 -47 -115 -8 -244 7 -296 34 -91 46 -192 90 -234
102 -25 7 -55 19 -66 26 -12 8 -35 15 -52 18 -17 2 -57 12 -89 23 -93 31 -137
40 -323 63 -240 29 -376 27 -505 -7 -137 -36 -156 -38 -199 -20 -21 9 -45 16
-52 16 -8 0 -116 51 -241 113 -126 62 -262 127 -303 146 -41 18 -89 44 -107
57 -48 36 -128 64 -183 64 l-50 0 0 -810 0 -810 3750 0 3750 0 0 910 c0 744
-2 910 -13 910 -7 0 -23 14 -36 31 -13 17 -25 28 -28 26 -2 -3 -13 3 -24 14
-22 22 -28 23 -49 9z"/>
</g>
</svg>
