<?xml version="1.0" standalone="no"?>
<!DOCTYPE svg PUBLIC "-//W3C//DTD SVG 20010904//EN"
 "http://www.w3.org/TR/2001/REC-SVG-20010904/DTD/svg10.dtd">
<svg version="1.0" xmlns="http://www.w3.org/2000/svg"
 width="751.000000pt" height="501.000000pt" viewBox="0 0 751.000000 501.000000"
 preserveAspectRatio="xMidYMid meet">
<metadata>
Created by potrace 1.16, written by Peter Selinger 2001-2019
</metadata>
<g transform="translate(0.000000,501.000000) scale(0.100000,-0.100000)"
fill="#000000" stroke="none">
<path d="M2070 4600 c-14 -4 -34 -6 -45 -3 -29 6 -128 -41 -174 -83 -49 -44
-85 -99 -75 -115 4 -8 3 -9 -4 -5 -11 6 -16 -5 -13 -26 0 -4 -6 -23 -15 -43
-28 -67 -35 -130 -19 -180 12 -41 12 -45 -1 -34 -26 21 -44 66 -44 107 l0 39
-40 -7 c-92 -17 -437 -354 -644 -630 -119 -158 -182 -256 -303 -465 -59 -102
-171 -327 -179 -361 -4 -16 -11 -35 -17 -41 -15 -20 23 -16 74 6 24 10 64 22
89 26 44 6 44 6 22 -10 -12 -9 -30 -18 -41 -20 -33 -6 -125 -58 -160 -89 l-34
-31 23 35 23 35 -34 -32 c-19 -18 -50 -59 -69 -90 -19 -32 -42 -66 -52 -77 -9
-10 -28 -42 -42 -71 -48 -102 -15 -256 77 -355 18 -19 43 -47 55 -61 l23 -26
-24 4 c-19 4 -26 0 -30 -18 -3 -12 -2 -29 3 -38 4 -9 15 -58 24 -109 9 -52 29
-123 44 -158 88 -209 466 -617 687 -744 107 -61 174 -82 280 -87 105 -6 219
12 358 58 50 17 144 41 208 54 244 50 371 91 664 216 241 102 727 349 864 439
219 143 303 173 491 174 190 1 281 -33 566 -216 207 -133 386 -236 488 -283
164 -74 327 -99 510 -76 100 13 225 44 235 59 3 5 22 11 41 15 19 3 41 7 49 9
10 2 17 -10 23 -41 4 -24 18 -60 30 -79 25 -37 56 -45 179 -45 126 -1 263 106
344 268 58 116 75 186 75 308 0 130 -20 220 -91 412 -62 167 -93 274 -105 362
l-7 53 90 88 c151 148 343 264 519 313 64 18 106 23 219 23 77 1 182 -3 233
-8 l92 -9 0 40 c0 39 -2 41 -37 47 -21 4 -101 9 -178 13 -110 5 -158 2 -225
-11 -254 -50 -460 -157 -659 -342 l-78 -73 -38 122 c-21 67 -49 147 -61 177
-12 30 -21 66 -19 80 2 14 12 74 21 134 37 244 -13 398 -135 413 -84 10 -141
-68 -141 -197 1 -123 12 -157 140 -400 33 -63 60 -124 60 -136 0 -12 11 -59
24 -105 13 -46 31 -111 40 -144 l15 -60 -50 -97 c-61 -120 -69 -141 -126 -343
-82 -293 -112 -419 -124 -527 -6 -59 -17 -112 -23 -117 -31 -26 -140 -71 -221
-91 -116 -29 -309 -33 -401 -7 -146 40 -267 103 -599 310 -334 208 -441 249
-645 250 -192 0 -332 -51 -553 -199 -206 -138 -927 -483 -1181 -565 -49 -15
-142 -40 -205 -54 -182 -41 -309 -72 -400 -100 -334 -101 -536 -17 -893 368
-192 208 -297 380 -314 516 -5 40 -3 56 7 62 22 14 27 11 34 -24 16 -78 26
-97 65 -117 22 -11 51 -20 66 -20 22 0 25 2 14 15 -7 8 -9 15 -5 15 4 0 2 6
-4 14 -6 8 -13 28 -14 46 -2 26 -10 36 -50 57 -56 31 -58 41 -2 13 22 -11 50
-20 63 -20 12 0 40 -9 62 -20 22 -11 50 -20 64 -20 13 0 26 -5 28 -11 5 -16
128 -18 159 -3 36 18 90 83 127 152 40 77 51 119 13 56 -57 -97 -180 -186
-255 -183 -12 0 3 8 32 17 62 20 150 94 198 167 100 151 110 383 23 544 -36
67 -56 91 -134 156 -109 92 -107 73 -17 174 153 170 332 405 332 435 0 10 4
15 8 12 10 -6 46 52 47 77 1 10 8 23 15 30 10 9 11 9 6 0 -14 -25 2 -13 20 15
16 25 16 26 0 13 -14 -12 -13 -7 4 22 23 38 39 52 20 17 -19 -35 -3 -21 20 17
17 29 18 34 4 22 -16 -13 -16 -12 -4 8 8 12 17 20 20 18 4 -2 15 10 25 27 10
17 13 28 7 24 -8 -5 -10 -2 -6 8 3 9 9 14 13 11 4 -2 18 15 30 38 21 39 15 35
-17 -10 -21 -29 -8 -3 38 77 23 41 57 90 74 108 26 27 29 36 19 51 -16 26 -8
31 48 31 39 0 49 -4 63 -25 l16 -25 -50 0 c-43 0 -55 -5 -84 -32 -19 -18 -46
-55 -61 -83 -14 -27 -20 -42 -13 -31 58 82 72 98 96 107 15 6 43 8 62 4 19 -4
45 -7 57 -9 12 -1 36 -21 55 -45 96 -125 135 -143 259 -118 88 17 179 55 247
103 116 83 210 204 226 294 5 27 2 22 -17 -22 -51 -119 -153 -225 -272 -283
-127 -61 -251 -68 -351 -20 -60 29 -75 41 -99 80 -17 27 -15 26 21 -9 83 -82
192 -101 334 -58 147 46 259 140 334 283 64 121 62 237 -5 335 -16 23 -26 44
-23 47 13 12 -68 58 -132 74 -38 10 -71 22 -73 27 -2 4 -26 19 -55 32 -52 24
-116 30 -166 14z m4038 -1189 c64 -32 80 -95 62 -230 -7 -50 -16 -91 -20 -91
-4 0 -28 42 -53 94 -47 95 -71 172 -62 200 3 9 7 23 10 31 6 20 18 19 63 -4z
m137 -1154 c-48 -372 -85 -537 -142 -637 -33 -56 -73 -110 -83 -110 -27 0 142
666 197 773 19 38 34 24 28 -26z m201 -318 c64 -181 56 -343 -27 -508 -84
-169 -267 -278 -353 -210 -35 27 -56 75 -56 127 0 31 7 45 36 73 85 81 150
197 183 323 19 73 71 372 86 493 l7 53 45 -128 c25 -70 60 -170 79 -223z"/>
</g>
</svg>
